<?xml version="1.0" encoding="UTF-8"?>
<svg id="Layer_1" xmlns="http://www.w3.org/2000/svg" width="134.195" height="134.195" version="1.1" viewBox="0 0 134.195 134.195">
  <!-- Generator: Adobe Illustrator 29.7.1, SVG Export Plug-In . SVG Version: 2.1.1 Build 8)  -->
  <defs>
    <style>
      .st0 {
        fill: #fff;
      }

      .st1 {
        fill: #dcecf9;
      }

      .st2 {
        fill: none;
        stroke: #01387c;
        stroke-linecap: round;
        stroke-miterlimit: 10;
        stroke-width: 3.5915px;
      }

      .st3 {
        fill: #01387c;
      }
    </style>
  </defs>
  <rect class="st1" width="134.195" height="134.195" rx="42.3729" ry="42.3729"/>
  <g>
    <path class="st3" d="M107.1526,88.4554c.2806-.2968.5604-.5941.8262-.8968.17-.1936.3301-.3914.494-.5875.2298-.275.4579-.5508.6757-.8308.1624-.2089.3181-.4206.4737-.6322.2031-.2763.4017-.5547.5933-.8361.1477-.217.2924-.4355.4331-.6555.1842-.2879.3603-.5795.5325-.8728.1286-.2191.258-.4379.3799-.66.1717-.313.3317-.6318.4901-.9511.1038-.2094.2126-.4166.3106-.6288.182-.3939.3479-.7958.5097-1.1996.0579-.1446.1238-.285.1792-.4308.2073-.5461.3951-1.1023.5657-1.6673.0566-.1876.1016-.3812.1543-.5709.1082-.3901.214-.7816.3049-1.181.0539-.2371.098-.4795.1458-.7198.0723-.3634.1416-.7285.1997-1.0997.0404-.2577.0744-.5193.108-.7809.0472-.3676.0883-.7389.1219-1.1142.024-.2674.0455-.5363.0625-.8078.0243-.387.0388-.7798.0489-1.1751.0068-.268.0155-.5351.0158-.807.0005-.4308-.013-.8702-.0291-1.311-.0089-.245-.0117-.4864-.0257-.7346-.0334-.5895-.0847-1.1902-.1473-1.7978-.0111-.1081-.0158-.2122-.0278-.3208-.0794-.7161-.1818-1.4465-.3018-2.1883-.0383-.2364-.0882-.4805-.1306-.7196-.0915-.5161-.1866-1.0345-.2975-1.5632-.0624-.2972-.1343-.6009-.2029-.9022-.1105-.486-.2255-.975-.3522-1.4718-.0823-.3229-.1706-.65-.2598-.9775-.1343-.4931-.2762-.9915-.426-1.4952-.0999-.3357-.2016-.6727-.3084-1.0132-.1634-.5207-.3384-1.0496-.5182-1.5819-.1122-.332-.2216-.662-.3401-.9985-.2073-.5883-.4308-1.1882-.6578-1.7905-.1102-.2922-.2129-.5792-.3277-.8748-.3506-.9027-.719-1.8183-1.1134-2.7529-11.4376-27.1044-26.0482-31.4586-47.9507-24.622-.0225.0049-.0446.0087-.0672.0137-3.6771.8062-6.7674,2.2281-10.5144,3.8694-.4721.1947-.9392.3835-1.4173.5853-.8418.3553-1.6679.7114-2.4808,1.0687.0169-.0069.032-.0135.0489-.0203-27.0091,11.8613-37.9817,25.0934-24.9562,55.9606,8.2537,19.5591,18.1578,27.2727,31.2621,27.4845l-.004.0033c18.7437.4908,43.9361-.0432,43.9361-.0432l-5.0719-12.019c.0045-.0027.0088-.0056.0133-.0083.6648-.3459,1.3163-.6943,1.9543-1.0454.2539-.1397.4961-.2819.7458-.4225.4247-.2392.8497-.4784,1.2618-.7204.2886-.1694.5673-.3413.8497-.5122.3591-.2173.7176-.4348,1.0667-.6546.2858-.1799.5646-.3618.8436-.5434.3319-.2161.6605-.4331.9827-.6519.2723-.1849.541-.3708.8064-.5576.3154-.222.6247-.4463.9303-.6712.2543-.1872.5084-.3746.7558-.5639.3071-.2351.6045-.4733.901-.7118.2275-.183.4587-.3649.6798-.5499.3286-.275.6435-.5548.958-.8346.1725-.1535.3527-.3045.521-.4596.4631-.4266.9098-.8591,1.3404-1.2977.1539-.1567.2962-.3181.4458-.4765Z"/>
    <path class="st0" d="M77.0392,92.2907c13.5086-5.7004,21.2555-10.9436,24.3798-16.5005,1.3851-2.4633,1.9482-5.1678,1.7727-8.5108-.2255-4.2946-1.6927-9.6781-4.3608-16.0007-2.668-6.3226-5.5011-11.1297-8.4204-14.2875-2.2725-2.4582-4.6029-3.9415-7.334-4.6679-6.1609-1.6387-15.3219.253-28.8305,5.9534s-21.2554,10.9436-24.3799,16.5006c-1.3849,2.4633-1.9482,5.1676-1.7727,8.5108.2255,4.2945,1.6928,9.6779,4.3608,16.0005s5.501,11.1297,8.4204,14.2876c2.2726,2.4581,4.603,3.9414,7.3339,4.6679,6.1608,1.6387,15.3219-.2531,28.8306-5.9536Z"/>
  </g>
  <path class="st2" d="M77.3247,73.0148c-1.3056,2.3125-3.4936,4.3092-6.3188,5.5014-2.8252,1.1922-5.7822,1.3666-8.3498.6885"/>
  <g>
    <path class="st3" d="M42.7517,60.4846c-5.0016,2.1106-4.1432,7.1336-2.1688,11.8125,1.9744,4.6789,4.974,8.7984,9.9756,6.6878,5.0016-2.1106,4.1432-7.1336,2.1687-11.8125s-4.974-8.7984-9.9756-6.6878Z"/>
    <path class="st3" d="M77.8007,45.6944c-5.0016,2.1106-4.1432,7.1336-2.1687,11.8125s4.974,8.7984,9.9756,6.6878,4.1432-7.1336,2.1688-11.8125-4.974-8.7984-9.9756-6.6878Z"/>
  </g>
</svg>