<?xml version="1.0" encoding="UTF-8"?>
<svg id="Layer_1" xmlns="http://www.w3.org/2000/svg" width="134.195" height="134.195" version="1.1" xmlns:xlink="http://www.w3.org/1999/xlink" viewBox="0 0 134.195 134.195">
  <!-- Generator: Adobe Illustrator 29.7.1, SVG Export Plug-In . SVG Version: 2.1.1 Build 8)  -->
  <defs>
    <style>
      .st0 {
        fill: #fff;
      }

      .st1 {
        fill: url(#radial-gradient);
      }

      .st2 {
        fill: none;
        stroke: #01387c;
        stroke-linecap: round;
        stroke-miterlimit: 10;
        stroke-width: 3.5915px;
      }

      .st3 {
        fill: #01387c;
      }
    </style>
    <radialGradient id="radial-gradient" cx="18.1122" cy="2.6031" fx="18.1122" fy="2.6031" r="134.0042" gradientUnits="userSpaceOnUse">
      <stop offset="0" stop-color="#aedfe4"/>
      <stop offset="1" stop-color="#1275bc"/>
    </radialGradient>
  </defs>
  <rect class="st1" y="0" width="134.195" height="134.195" rx="42.3729" ry="42.3729"/>
  <g>
    <path class="st3" d="M107.1045,88.4554c.2806-.2968.5604-.594.8261-.8967.1704-.1941.331-.3924.4953-.589.2292-.2742.4566-.5492.6737-.8283.1631-.2097.3195-.4224.4758-.635.2024-.2753.4002-.5527.591-.8329.1484-.2179.2936-.4373.435-.6583.1836-.287.3592-.5778.5309-.8702.1289-.2195.2586-.4388.3808-.6615.1717-.3129.3317-.6316.49-.9509.1038-.2094.2126-.4166.3106-.6288.182-.3939.3478-.7958.5097-1.1996.0579-.1446.1238-.285.1792-.4308.2072-.5458.3949-1.1017.5654-1.6663.0571-.1889.1025-.3841.1554-.5753.1078-.3891.2134-.7793.304-1.1775.0539-.2371.098-.4795.1458-.7198.0723-.3634.1416-.7285.1997-1.0997.0404-.2577.0744-.5193.108-.7809.0472-.3676.0883-.7389.1219-1.1142.024-.2674.0455-.5363.0625-.8078.0242-.387.0388-.7798.0489-1.1751.0068-.268.0155-.5351.0158-.807.0005-.4299-.013-.8683-.029-1.3082-.0089-.2464-.0117-.4891-.0259-.7387-.0334-.5884-.0846-1.1878-.147-1.7942-.0112-.1089-.0159-.2137-.0281-.3232-.0794-.7155-.1817-1.4454-.3016-2.1868-.0387-.2395-.0893-.4867-.1323-.729-.0911-.513-.1854-1.0283-.2957-1.5538-.0626-.2984-.1349-.6034-.2038-.906-.1104-.4851-.225-.9732-.3515-1.4691-.0826-.3239-.1712-.652-.2607-.9805-.1339-.4915-.2753-.9882-.4247-1.4904-.1001-.3368-.2021-.6748-.3093-1.0163-.1633-.5205-.3383-1.0492-.518-1.5812-.1122-.332-.2216-.662-.3401-.9985-.2073-.5883-.4308-1.1882-.6578-1.7905-.1102-.2922-.2129-.5792-.3277-.8748-.3506-.9027-.719-1.8183-1.1134-2.7529-11.4376-27.1044-26.0482-31.4586-47.9507-24.622-.0225.0049-.0446.0087-.0672.0137-3.6775.8064-6.7682,2.2285-10.5159,3.87-.4716.1945-.9382.3831-1.4158.5847-.8419.3553-1.668.7114-2.4809,1.0687.0176-.0072.0333-.014.0509-.0212-27.0105,11.8616-37.984,25.0936-24.9582,55.9614,8.2537,19.5591,18.1579,27.2727,31.2622,27.4845l-.0041.0033c18.7437.4908,43.9361-.0432,43.9361-.0432l-5.0719-12.019h0c.0046-.0029.009-.0057.0137-.0086.6642-.3456,1.3152-.6937,1.9527-1.0445.2573-.1416.503-.2858.7559-.4282.4211-.2373.8428-.4744,1.2517-.7145.2903-.1705.5707-.3434.8548-.5153.3572-.2162.7142-.4326,1.0615-.6513.2871-.1807.5671-.3634.8473-.5458.3305-.2152.6578-.4314.9788-.6492.2734-.1856.5432-.3724.8096-.56.3142-.2212.6221-.4445.9266-.6686.2553-.188.5107-.3762.7591-.5663.3061-.2343.6027-.472.8982-.7096.228-.1835.4598-.3658.6815-.5514.3274-.274.6413-.5528.9548-.8317.1739-.1547.3553-.3068.5249-.463.4628-.4264.9094-.8586,1.3397-1.297.1539-.1567.2962-.3181.4458-.4765Z"/>
    <path class="st0" d="M76.9911,92.2907c13.5086-5.7004,21.2555-10.9436,24.3798-16.5005,1.3851-2.4633,1.9482-5.1678,1.7727-8.5108-.2255-4.2946-1.6927-9.6781-4.3608-16.0007s-5.5011-11.1297-8.4204-14.2875c-2.2725-2.4582-4.6029-3.9415-7.334-4.6679-6.1609-1.6387-15.3219.253-28.8305,5.9534-13.5087,5.7005-21.2554,10.9436-24.3799,16.5006-1.3849,2.4633-1.9482,5.1676-1.7727,8.5108.2255,4.2945,1.6928,9.6779,4.3608,16.0005s5.501,11.1297,8.4204,14.2876c2.2726,2.4581,4.603,3.9414,7.3339,4.6679,6.1608,1.6387,15.3219-.2531,28.8306-5.9536Z"/>
  </g>
  <path class="st2" d="M77.2766,73.0148c-1.3056,2.3125-3.4936,4.3092-6.3188,5.5014s-5.7822,1.3666-8.3498.6885"/>
  <g>
    <path class="st3" d="M42.7036,60.4846c-5.0016,2.1106-4.1432,7.1336-2.1688,11.8125,1.9744,4.6789,4.974,8.7984,9.9756,6.6878,5.0016-2.1106,4.1432-7.1336,2.1687-11.8125s-4.974-8.7984-9.9756-6.6878Z"/>
    <path class="st3" d="M77.7525,45.6944c-5.0016,2.1106-4.1432,7.1336-2.1687,11.8125s4.974,8.7984,9.9756,6.6878,4.1432-7.1336,2.1688-11.8125-4.974-8.7984-9.9756-6.6878Z"/>
  </g>
</svg>