<?xml version="1.0" encoding="UTF-8"?>
<svg id="Layer_1" xmlns="http://www.w3.org/2000/svg" width="545.184" height="111.873" version="1.1" xmlns:xlink="http://www.w3.org/1999/xlink" viewBox="0 0 545.184 111.873">
  <!-- Generator: Adobe Illustrator 29.7.1, SVG Export Plug-In . SVG Version: 2.1.1 Build 8)  -->
  <defs>
    <style>
      .st0 {
        fill: url(#radial-gradient);
      }

      .st1 {
        fill: url(#radial-gradient1);
      }

      .st2 {
        fill: url(#radial-gradient2);
      }

      .st3 {
        fill: url(#radial-gradient3);
      }

      .st4 {
        fill: #01387c;
      }
    </style>
    <radialGradient id="radial-gradient" cx="22.2557" cy="48.049" fx="22.2557" fy="48.049" r="104.275" gradientTransform="translate(0 114) scale(1 -1)" gradientUnits="userSpaceOnUse">
      <stop offset="0" stop-color="#aedfe4"/>
      <stop offset=".553" stop-color="#1275bc"/>
      <stop offset="1" stop-color="#01387c"/>
    </radialGradient>
    <radialGradient id="radial-gradient1" cx="443.3681" cy="17.1227" fx="443.3681" fy="17.1227" r="115.3503" gradientUnits="userSpaceOnUse">
      <stop offset="0" stop-color="#aedfe4"/>
      <stop offset=".553" stop-color="#1275bc"/>
      <stop offset="1" stop-color="#01387c"/>
    </radialGradient>
    <radialGradient id="radial-gradient2" r="115.3503" xlink:href="#radial-gradient1"/>
    <radialGradient id="radial-gradient3" r="115.3503" xlink:href="#radial-gradient1"/>
  </defs>
  <path class="st4" d="M356.1778,84.171h14.391V26.336h-14.257v57.835h-.135.001Z"/>
  <path class="st4" d="M411.3217,84.036l-25.151-25.017,22.192-24.075h-16.678l-21.116,24.344,22.865,24.882h17.888v-.134h0Z"/>
  <path class="st4" d="M293.3657,75.563c-4.169,0-6.321-2.152-6.321-6.59v-25.555h8.473v-8.608h-8.473v-8.742h-14.257v44.385c0,9.146,6.321,13.584,19.099,13.584,1.21,0,2.421,0,3.631-.134v-8.742c-.672.404-1.345.404-2.152.404"/>
  <path class="st4" d="M314.4827,45.3c1.614-1.345,5.111-2.017,10.356-2.017,5.514,0,9.011.538,10.76,1.614,1.614,1.076,2.421,3.497,2.421,7.263v1.883h-26.093c.134-4.438.941-7.397,2.555-8.742l.001-.001ZM325.3767,76.101c-5.38,0-9.011-.807-10.894-2.286-1.883-1.479-2.69-4.573-2.69-9.28,0-.269,0-2.555.135-3.631h40.484v-3.362c0-9.011-1.748-14.929-5.38-18.023-3.631-3.093-10.76-4.573-21.385-4.573-11.163,0-18.561,1.614-22.461,4.707s-5.783,9.28-5.783,18.426c0,10.222,1.883,18.561,5.514,21.654,3.631,3.228,11.97,5.111,23.941,4.707,6.187-.134,9.146,0,27.034-.403l-10.356-8.204c-15.333.269-16.678.269-18.157.269"/>
  <path class="st4" d="M163.9777,75.832h0ZM179.4447,75.832h-15.871c-5.245,0-8.742-.807-10.491-2.286-.807-.672-1.21-6.994-1.21-14.257h30.128v-8.742h-30.128c.134-7.128.538-13.181,1.21-13.719,1.614-1.345,5.111-2.017,10.356-2.017h24.479v-8.473h-23.941c-11.163,0-18.561,1.614-22.461,4.707-3.766,3.093-5.783,15.198-5.783,24.344,0,10.222,1.883,20.982,5.514,24.075,3.631,3.228,11.432,4.707,23.268,4.707h25.017l-10.087-8.339h0Z"/>
  <path class="st4" d="M123.8967,55.253c0,29.186-.538,52.858-1.076,52.858s-1.076-23.672-1.076-52.858.538-52.858,1.076-52.858,1.076,23.672,1.076,52.858"/>
  <path class="st4" d="M268.6178,84.036V26.201h-13.315l-24.882,38.332-25.017-38.332v.135h-13.181v57.7h13.315v-33.759l21.923,33.759h5.783l22.058-34.028v34.028h13.316Z"/>
  <path class="st0" d="M109.7967,63.204c.38-2.596.594-5.209.594-7.817,0-28.448-23.145-51.592-51.593-51.592-14.898,0-28.723,6.24-38.478,17.222-.34-.098-.693-.167-1.064-.167-2.134,0-3.871,1.736-3.871,3.871s1.736,3.871,3.871,3.871c.493,0,.96-.101,1.394-.27l12.087,12.088c-.128.248-.234.507-.321.777H13.9637c-.6-1.345-1.945-2.288-3.51-2.288-2.122,0-3.847,1.726-3.847,3.847,0,1.232.593,2.318,1.496,3.023-.59,3.113-.896,6.333-.896,9.62,0,4.007.46,7.806,1.357,11.541-.607.586-.988,1.404-.988,2.313,0,1.528,1.072,2.805,2.502,3.133,7.153,20.508,26.797,34.608,48.723,34.608,10.356,0,20.183-3.011,28.657-8.704.573.331,1.228.535,1.935.535,2.149,0,3.897-1.748,3.897-3.897s-1.748-3.897-3.897-3.897c-.486,0-.947.1-1.376.264l-12.886-12.886c.166-.434.267-.9.267-1.392,0-2.159-1.756-3.915-3.915-3.915s-3.915,1.756-3.915,3.915c0,.497.102.969.272,1.408l-7.766,7.696c-.707-.367-1.497-.595-2.346-.595-.842,0-1.626.223-2.328.585l-15.993-15.992c.13-.251.238-.512.325-.785h19.136c.595,1.295,1.897,2.202,3.413,2.202s2.819-.907,3.414-2.203h36.933c.664,2.064,2.581,3.572,4.863,3.572,2.829,0,5.131-2.302,5.131-5.131,0-1.995-1.156-3.709-2.823-4.557l-.002-.003ZM19.2557,26.253c-.847,0-1.533-.686-1.533-1.533s.686-1.533,1.533-1.533,1.533.686,1.533,1.533-.686,1.533-1.533,1.533ZM89.3917,93.357c.861,0,1.559.698,1.559,1.559s-.698,1.559-1.559,1.559-1.559-.698-1.559-1.559.698-1.559,1.559-1.559ZM13.9637,44.303h18.452c.087.27.192.528.32.776l-10.533,10.535-10.539,10.54c-.036-.01-.07-.024-.107-.033-.826-3.47-1.233-7.005-1.233-10.734,0-3.03.28-5.996.812-8.864,1.267-.229,2.317-1.075,2.828-2.22ZM8.9437,42.745c0-.834.676-1.509,1.509-1.509s1.509.676,1.509,1.509-.676,1.509-1.509,1.509-1.509-.676-1.509-1.509ZM10.7947,70.513c-.702,0-1.272-.57-1.272-1.272s.569-1.272,1.272-1.272,1.272.57,1.272,1.272-.57,1.272-1.272,1.272ZM71.4817,75.428c.871,0,1.577.706,1.577,1.577s-.706,1.577-1.577,1.577-1.577-.706-1.577-1.577.706-1.577,1.577-1.577ZM57.7267,88.632c1.112,0,2.013.901,2.013,2.013,0,.081-.037.15-.046.229h0c-.059.497-.278.936-.632,1.255-.044.041-.101.063-.148.1-.14.105-.277.214-.442.28-.227.094-.474.147-.736.149-.003,0-.005.002-.008.002s-.006-.002-.009-.002c-.262-.001-.51-.055-.736-.149-.166-.066-.302-.175-.443-.28-.047-.037-.105-.059-.149-.1-.409-.368-.676-.889-.676-1.482,0-1.112.901-2.013,2.013-2.013l-.001-.002ZM39.7317,66.204c-.664-2.065-2.58-3.574-4.863-3.574-2.829,0-5.131,2.302-5.131,5.131s2.302,5.131,5.131,5.131c.843,0,1.627-.224,2.329-.585l15.992,15.992c-.367.706-.594,1.496-.594,2.346,0,2.829,2.302,5.131,5.131,5.131s5.131-2.302,5.131-5.131c0-.842-.223-1.626-.584-2.327l7.754-7.684c.451.181.94.287,1.455.287.521,0,1.016-.107,1.471-.292l12.832,12.83c-.183.451-.289.941-.289,1.457,0,.29.037.57.097.842-7.933,5.293-17.112,8.107-26.792,8.107-20.551,0-38.938-13.194-45.7-32.383.564-.58.915-1.369.915-2.241,0-.31-.058-.604-.14-.888l11.707-11.709,9.358-9.359c.705.365,1.492.59,2.339.59s1.63-.225,2.334-.588l18.917,18.917h-18.8ZM36.8817,67.762c0,1.112-.901,2.013-2.013,2.013-.598,0-1.12-.273-1.489-.687-.044-.047-.068-.108-.107-.159-.1-.137-.204-.268-.268-.427-.094-.228-.149-.476-.149-.74,0-1.112.901-2.013,2.013-2.013.242,0,.468.052.678.137.204.074.381.187.548.319h0c.468.369.788.915.788,1.557h-.001ZM35.2657,42.745c0-1.112.901-2.013,2.013-2.013s2.013.901,2.013,2.013-.901,2.013-2.013,2.013-2.013-.901-2.013-2.013ZM62.2797,69.185c-.786,0-1.424-.637-1.424-1.424s.637-1.424,1.424-1.424,1.424.637,1.424,1.424-.637,1.424-1.424,1.424ZM102.6267,66.203h-36.933c-.595-1.296-1.897-2.203-3.414-2.203-.458,0-.893.094-1.299.245l-19.161-19.161c.129-.25.235-.509.323-.78h37.236c.587,1.233,1.836,2.094,3.29,2.094,2.014,0,3.653-1.639,3.653-3.653s-1.639-3.653-3.653-3.653c-.411,0-.8.083-1.169.209l-16.999-16.993c.252-.606.394-1.268.394-1.964,0-2.829-2.302-5.131-5.131-5.131s-5.131,2.302-5.131,5.131c0,.823.213,1.591.559,2.281l-15.578,15.577c-.704-.364-1.49-.589-2.335-.589s-1.634.226-2.339.591l-12.085-12.086c.17-.435.271-.904.271-1.398,0-.614-.157-1.188-.413-1.704C31.8737,12.746,44.8337,6.913,58.7987,6.913c26.73,0,48.475,21.746,48.475,48.475,0,2.441-.193,4.889-.547,7.32-1.941.293-3.512,1.667-4.101,3.495h.001ZM61.7767,20.344c0,1.001-.743,1.794-1.7,1.95h0c-.025.004-.051.009-.075.015-.082.01-.154.048-.238.048-1.112,0-2.013-.901-2.013-2.013,0-.373.129-.703.306-1.003,0-.001.002-.002.002-.004.112-.189.241-.359.406-.501.056-.051.125-.081.186-.125.125-.086.242-.178.385-.233.225-.091.468-.147.728-.147.235,0,.45.055.656.132.075.026.146.051.217.086.118.062.227.139.331.223.145.111.267.235.377.381h0c.255.337.433.736.433,1.192l-.001-.001ZM59.7637,25.475c.995,0,1.918-.297,2.705-.79l16.507,16.501h-36.834c-.087-.271-.193-.531-.323-.78l15.551-15.551c.718.383,1.524.62,2.393.62h.001ZM81.3537,42.745c0-.726.589-1.315,1.315-1.315s1.315.589,1.315,1.315-.589,1.315-1.315,1.315-1.315-.589-1.315-1.315ZM107.4897,69.775c-.242,0-.467-.052-.676-.137-.204-.073-.38-.187-.547-.318h0c-.469-.369-.79-.916-.79-1.559,0-1.112.901-2.013,2.013-2.013.719,0,1.321.398,1.677.965h0c.087.138.161.277.213.435.073.192.124.394.124.614,0,1.112-.901,2.013-2.013,2.013h-.001Z"/>
  <g>
    <path class="st1" d="M450.6808,84.1672v-23.2045h-28.4071v23.2045h-5.2035v-49.2212h5.2035v21.2354h28.4071v-21.2354h5.2035v49.2212h-5.2035Z"/>
    <path class="st2" d="M498.8436,61.0333c0,15.4693-5.5557,23.9774-18.8445,23.9774-12.9387,0-18.564-8.5081-18.564-23.9774v-26.0873h5.2035v28.0559c0,11.6018,5.2035,17.2281,13.5007,17.2281,8.3678,0,13.5007-5.6263,13.5007-17.2281v-28.0559h5.2035v26.0873Z"/>
    <path class="st3" d="M515.7146,34.946c4.7111,0,9.5625.9137,13.0083,3.3046,2.8828,2.0392,4.7808,5.1329,4.7808,9.7038,0,4.922-2.1089,8.6488-7.9451,10.6876,6.8906,1.6881,9.9147,5.6959,9.9147,11.8136,0,6.1873-3.024,9.7038-7.5243,11.6724-3.5154,1.5468-7.9461,2.0392-12.5159,2.0392h-11.0397v-49.2212h11.3212ZM509.5969,56.6032h5.6253c8.0863,0,13.079-2.5311,13.079-8.2972,0-3.2344-1.1251-5.2737-3.0947-6.5395-2.7415-1.7582-6.9613-2.0392-11.6018-2.0392h-4.0078v16.8759ZM513.9559,79.3854c3.7273,0,8.2276-.0696,11.4615-1.5468,2.6719-1.1957,4.5002-3.4458,4.5002-7.383,0-5.3438-4.0078-9.0711-11.3909-9.0711h-8.9299v18.001h4.359Z"/>
  </g>
</svg>