<?xml version="1.0" encoding="UTF-8"?>
<svg id="Layer_1" xmlns="http://www.w3.org/2000/svg" width="617.9104" height="166.7324" version="1.1" xmlns:xlink="http://www.w3.org/1999/xlink" viewBox="0 0 617.9104 166.7324">
  <!-- Generator: Adobe Illustrator 29.7.1, SVG Export Plug-In . SVG Version: 2.1.1 Build 8)  -->
  <defs>
    <style>
      .st0 {
        fill: #fff;
      }

      .st1 {
        fill: url(#radial-gradient);
      }

      .st2 {
        fill: #01387c;
      }

      .st3 {
        fill: none;
        stroke: #01387c;
        stroke-linecap: round;
        stroke-miterlimit: 10;
        stroke-width: 5.8281px;
      }
    </style>
    <radialGradient id="radial-gradient" cx="-6.0798" cy="38.009" fx="-6.0798" fy="38.009" r="139.3452" gradientUnits="userSpaceOnUse">
      <stop offset="0" stop-color="#aedfe4"/>
      <stop offset="1" stop-color="#1275bc"/>
    </radialGradient>
  </defs>
  <path class="st2" d="M195.9216,83.53c0,45.0178-.8298,81.5298-1.6596,81.5298s-1.6596-36.5121-1.6596-81.5298.8298-81.5298,1.6596-81.5298,1.6596,36.5121,1.6596,81.5298"/>
  <g>
    <path class="st2" d="M243.6724,37.153h14.582c4.9741,0,9.8794.0923,14.7188.2739,4.8374.1841,9.4004.458,13.6924.8218l-.8218,12.7334h-36.9683c-2.5566,0-4.4502.6396-5.6826,1.917-1.2319,1.2793-1.8481,3.2861-1.8481,6.0244v51.4819c0,2.7383.6162,4.7471,1.8481,6.0244,1.2324,1.2793,3.126,1.917,5.6826,1.917h36.9683l.8218,12.7334c-4.292.3652-8.855.6162-13.6924.7529-4.8394.1367-9.7446.2266-14.7188.2734-4.9761.0449-9.8369.0684-14.582.0684-5.8428,0-10.5215-1.6191-14.0342-4.8604-3.5151-3.2393-5.3188-7.5986-5.4087-13.0762v-59.1489c.0898-5.4766,1.8936-9.8345,5.4087-13.0757,3.5127-3.2393,8.1914-4.8608,14.0342-4.8608ZM226.6943,76.1755h53.9463v12.5962h-53.9463v-12.5962Z"/>
    <path class="st2" d="M308.7769,64.674l1.6431,13.144,1.6431,1.917v52.1665h-16.5674v-67.2275h13.2812ZM336.4351,63.031c5.8398,0,10.3135,1.5532,13.418,4.6553,3.1016,3.1045,4.6553,7.7148,4.6553,13.8291v50.3862h-15.8828v-45.3203c0-3.5601-.7314-6.0454-2.1904-7.4624-1.4614-1.4141-3.6523-2.1221-6.5723-2.1221-1.8271,0-3.6519.2739-5.4771.8213-1.8271.5479-3.8335,1.4619-6.0244,2.7393-2.1909,1.2793-4.9292,3.0117-8.2153,5.2017l-.9585-9.9941c4.5635-4.2896,9.0371-7.4839,13.4185-9.5845,4.3813-2.0986,8.9897-3.1494,13.8291-3.1494ZM379.2905,63.031c5.9326,0,10.4746,1.5747,13.624,4.7241,3.1484,3.1489,4.7236,7.7358,4.7236,13.7603v50.3862h-16.4307v-45.3203c-.0918-3.3755-.7764-5.8188-2.0537-7.3247-1.2793-1.5068-3.5146-2.2598-6.709-2.2598-1.917,0-3.7656.2974-5.5459.8896-1.7793.5957-3.7646,1.5303-5.9561,2.8076-2.1904,1.2793-4.8389,2.9668-7.9414,5.0649l-.958-9.9941c4.6553-4.2896,9.1504-7.4839,13.4863-9.5845,4.335-2.0986,8.9219-3.1494,13.7607-3.1494Z"/>
    <path class="st2" d="M423.1187,64.674l1.6426,13.144,1.6436,1.917v52.1665h-16.5674v-67.2275h13.2812ZM450.7769,63.031c5.8398,0,10.3135,1.5532,13.418,4.6553,3.1016,3.1045,4.6553,7.7148,4.6553,13.8291v50.3862h-15.8828v-45.3203c0-3.5601-.7314-6.0454-2.1904-7.4624-1.4619-1.4141-3.6523-2.1221-6.5723-2.1221-1.8271,0-3.6523.2739-5.4775.8213-1.8271.5479-3.833,1.4619-6.0244,2.7393-2.1904,1.2793-4.9287,3.0117-8.2148,5.2017l-.959-9.9941c4.5635-4.2896,9.0371-7.4839,13.4189-9.5845,4.3809-2.0986,8.9893-3.1494,13.8291-3.1494ZM493.6323,63.031c5.9326,0,10.4746,1.5747,13.624,4.7241,3.1484,3.1489,4.7236,7.7358,4.7236,13.7603v50.3862h-16.4307v-45.3203c-.0918-3.3755-.7764-5.8188-2.0537-7.3247-1.2793-1.5068-3.5146-2.2598-6.709-2.2598-1.917,0-3.7656.2974-5.5459.8896-1.7793.5957-3.7646,1.5303-5.9561,2.8076-2.1904,1.2793-4.8389,2.9668-7.9414,5.0649l-.958-9.9941c4.6553-4.2896,9.1504-7.4839,13.4863-9.5845,4.335-2.0986,8.9219-3.1494,13.7607-3.1494Z"/>
    <path class="st2" d="M536.2144,35.51c3.2861,0,4.9297,1.6431,4.9297,4.9292v7.6675c0,3.2861-1.6436,4.9292-4.9297,4.9292h-7.3936c-3.2861,0-4.9297-1.6431-4.9297-4.9292v-7.6675c0-3.2861,1.6436-4.9292,4.9297-4.9292h7.3936ZM540.7329,64.674v67.2275h-16.4307v-67.2275h16.4307Z"/>
    <path class="st2" d="M583.6284,63.031c10.8623,0,18.667,1.8955,23.4141,5.6821,4.7451,3.7891,7.165,9.3794,7.2568,16.7725.0898,6.1162-1.3477,10.748-4.3135,13.8975-2.9668,3.1494-7.873,4.7236-14.7188,4.7236h-38.3379v-10.2686h33.8193c3.1025,0,5.0879-.8223,5.9561-2.4648.8662-1.6436,1.3008-3.6494,1.3008-6.0239-.0918-3.7422-1.1641-6.3437-3.2178-7.8047-2.0537-1.459-5.5449-2.1909-10.4736-2.1909-4.292,0-7.623.5952-9.9961,1.7803-2.374,1.187-4.0391,3.3335-4.9971,6.4351-.959,3.104-1.4375,7.5776-1.4375,13.4175,0,6.209.5928,11.001,1.7793,14.377,1.1855,3.3779,3.1494,5.6826,5.8877,6.9141,2.7383,1.2324,6.3887,1.8486,10.9541,1.8486,3.376,0,7.2783-.1367,11.7061-.4102,4.4268-.2744,8.6953-.6377,12.8027-1.0957l1.6426,10.543c-2.4639,1.0059-5.2949,1.8271-8.4893,2.4648-3.1953.6367-6.5029,1.1162-9.9268,1.4375-3.4229.3184-6.6406.4785-9.6523.4785-8.2148,0-14.8105-1.21-19.7852-3.6279-4.9766-2.418-8.5811-6.2295-10.8164-11.4326-2.2383-5.2031-3.3545-11.9121-3.3545-20.1279,0-8.8525,1.1162-15.8579,3.3545-21.0166,2.2354-5.1558,5.7949-8.8311,10.6797-11.022,4.8818-2.1904,11.2041-3.2861,18.9629-3.2861Z"/>
  </g>
  <g>
    <path class="st1" d="M149.1365,118.4703c.4546-.4815.9077-.9638,1.3382-1.4547.2764-.3152.5366-.637.803-.9562.372-.4456.741-.8925,1.0934-1.3462.264-.3399.517-.6847.77-1.0293.3285-.4474.6496-.8982.9593-1.3537.2403-.3535.4756-.7093.7045-1.0679.2977-.4661.5825-.9383.8609-1.4132.2089-.3564.4192-.7124.6171-1.0738.278-.5076.537-1.0244.7933-1.5423.1686-.3405.3451-.6774.5042-1.0225.2939-.6373.5616-1.2873.8231-1.9405.0948-.2367.2026-.4672.2931-.7061.3355-.8861.6394-1.7884.9157-2.705.0918-.3049.1649-.6198.2501-.9281.175-.6328.3463-1.2678.4932-1.9156.0872-.3848.1585-.7783.2358-1.1685.1168-.5899.2289-1.1825.3229-1.785.0652-.4178.12-.8416.1741-1.2655.0762-.597.1427-1.2.1968-1.8096.0385-.4341.0732-.8705.1005-1.3111.0389-.6282.062-1.2658.078-1.9076.0108-.4346.0245-.8677.0247-1.3087.0003-.6963-.022-1.4066-.0484-2.119-.0148-.4014-.0197-.7968-.043-1.2034-.0548-.9552-.1387-1.9283-.2407-2.9127-.0183-.1758-.0259-.345-.0456-.5217-.1297-1.1611-.2964-2.3456-.4919-3.5486-.0631-.388-.1453-.7884-.2152-1.1808-.1486-.8335-.3024-1.6706-.4822-2.5244-.1019-.4837-.2195-.978-.3314-1.4685-.1794-.7861-.3658-1.5771-.5712-2.3806-.1347-.5269-.2793-1.0607-.4253-1.5953-.2179-.7979-.4481-1.6045-.6913-2.4197-.1624-.5444-.3275-1.0909-.5013-1.643-.2657-.8449-.5502-1.703-.8426-2.5663-.1828-.5399-.3611-1.0766-.5543-1.6238-.3367-.9532-.6994-1.9251-1.068-2.9011-.1791-.4743-.3464-.9403-.5332-1.4202-.57-1.4647-1.1688-2.9502-1.8099-4.4665C134.0027,6.9932,110.2889-.0566,74.7545,11.0615c-.0368.008-.0728.0142-.1095.0223-5.9696,1.3131-10.9854,3.6257-17.069,6.2954-.7622.315-1.5163.6203-2.2882.9467-1.3657.5773-2.7058,1.1562-4.0247,1.7369.0302-.0123.0571-.024.0872-.0363C7.5289,39.305-10.2655,60.7891,10.9069,110.8671c13.4152,31.7304,29.4957,44.2366,50.7609,44.5658l-.0066.0055c30.4169.7756,71.297-.1187,71.297-.1187l-8.2436-19.4983c.0074-.0045.0143-.0091.0217-.0137,1.0768-.5612,2.1319-1.1263,3.1653-1.6958.4246-.234.8301-.4722,1.2473-.7078.6764-.3818,1.3538-.7635,2.0107-1.1498.4714-.2772.9268-.5583,1.388-.8378.5797-.3512,1.1585-.7031,1.7221-1.0583.4654-.2934.9195-.59,1.3738-.8864.5359-.3495,1.0667-.7005,1.5871-1.0543.444-.3018.8821-.6056,1.3147-.9106.5099-.3594,1.0096-.7222,1.5034-1.0863.4128-.3043.8255-.609,1.2271-.9168.4986-.3822.9815-.7695,1.4628-1.1573.3689-.2973.7438-.5927,1.1026-.8933.5301-.4443,1.0381-.8961,1.5455-1.3481.2827-.2518.5777-.4994.8534-.7538.7507-.6924,1.4747-1.3946,2.1727-2.1065.2499-.2549.4809-.5171.7239-.7746Z"/>
    <path class="st0" d="M100.2735,124.7282c21.9147-9.2653,34.4802-17.7822,39.544-26.803,2.2449-3.9989,3.1558-8.3881,2.8673-13.8128-.3707-6.9689-2.7576-15.7032-7.0941-25.9602-4.3365-10.257-8.9392-18.0545-13.6799-23.1756-3.6904-3.9865-7.4736-6.391-11.9063-7.5667-9.9993-2.6525-24.8633.4275-46.778,9.6928-21.9148,9.2653-34.48,17.7821-39.5441,26.8032-2.2446,3.9988-3.1557,8.3879-2.8673,13.8128.3706,6.9687,2.7576,15.703,7.0942,25.96,4.3365,10.257,8.939,18.0546,13.6799,23.1758,3.6905,3.9863,7.4739,6.3909,11.9063,7.5667,9.9992,2.6524,24.8632-.4276,46.7781-9.693Z"/>
  </g>
  <path class="st3" d="M100.7154,93.448c-2.1161,3.754-5.6645,6.9966-10.2478,8.9344-4.5833,1.9378-9.3816,2.224-13.5488,1.1266"/>
  <g>
    <path class="st2" d="M44.5984,73.1529c-8.114,3.4305-6.7155,11.5806-3.5063,19.1711s8.0813,14.2721,16.1953,10.8415,6.7154-11.5806,3.5062-19.1711c-3.2092-7.5906-8.0813-14.2721-16.1953-10.8416Z"/>
    <path class="st2" d="M101.4576,49.1135c-8.114,3.4305-6.7154,11.5806-3.5062,19.1711,3.2092,7.5906,8.0813,14.2721,16.1953,10.8416,8.114-3.4305,6.7155-11.5806,3.5063-19.1711s-8.0813-14.2721-16.1953-10.8415Z"/>
  </g>
</svg>