<?xml version="1.0" encoding="UTF-8" standalone="no"?>
<svg
   id="Layer_1"
   width="300"
   height="300"
   version="1.1"
   viewBox="0 0 299.99999 300"
   xmlns="http://www.w3.org/2000/svg"
   xmlns:svg="http://www.w3.org/2000/svg">
  <!-- Generator: Adobe Illustrator 29.7.1, SVG Export Plug-In . SVG Version: 2.1.1 Build 8)  -->
  <defs
     id="defs6">
    <style
       id="style1">
      .st0 {
        fill: url(#radial-gradient);
      }

      .st1 {
        fill: url(#radial-gradient1);
      }

      .st2 {
        fill: url(#radial-gradient2);
      }

      .st3 {
        fill: url(#radial-gradient3);
      }

      .st4 {
        fill: #01387c;
      }
    </style>
    <radialGradient
       id="radial-gradient-4-5"
       cx="22.255699"
       cy="48.049"
       fx="22.255699"
       fy="48.049"
       r="104.275"
       gradientTransform="matrix(2.7932674,0,0,-2.7932674,-17.294892,313.51894)"
       gradientUnits="userSpaceOnUse">
      <stop
         offset="0"
         stop-color="#aedfe4"
         id="stop1-8-1" />
      <stop
         offset=".553"
         stop-color="#1275bc"
         id="stop2-8-7" />
      <stop
         offset="1"
         stop-color="#01387c"
         id="stop3-2-1" />
    </radialGradient>
  </defs>
  <path
     class="st0"
     d="m 289.39669,171.63213 c 1.06144,-7.25133 1.65919,-14.55014 1.65919,-21.83497 0,-79.46288 -64.65019,-144.1102605 -144.11307,-144.1102605 -41.6141,0 -80.231025,17.4299905 -107.479351,48.1056505 -0.94971,-0.27374 -1.935728,-0.46647 -2.97203,-0.46647 -5.960832,0 -10.812747,4.84911 -10.812747,10.81274 0,5.96363 4.849118,10.81273 10.812747,10.81273 1.377073,0 2.68153,-0.28212 3.893812,-0.75418 l 33.762219,33.76501 c -0.357533,0.69274 -0.653627,1.41619 -0.896641,2.17038 H 21.709457 c -1.675965,-3.75695 -5.432914,-6.391 -9.804373,-6.391 -5.9273085,0 -10.7457005,4.82118 -10.7457005,10.74569 0,3.44131 1.656406,6.4748 4.178729,8.44405 -1.648026,8.69545 -2.502764,17.68977 -2.502764,26.87124 0,11.19262 1.284898,21.80425 3.790459,32.2371 -1.695512,1.63685 -2.759752,3.92174 -2.759752,6.46083 0,4.26811 2.994385,7.83512 6.9887635,8.75131 19.980242,57.28432 74.851189,96.6694 136.096371,96.6694 28.92708,0 56.37652,-8.41053 80.04668,-24.31261 1.60054,0.92458 3.43012,1.49441 5.40496,1.49441 6.00272,0 10.88536,-4.88263 10.88536,-10.88537 0,-6.00274 -4.88264,-10.88536 -10.88536,-10.88536 -1.35753,0 -2.64522,0.27932 -3.84353,0.73742 l -35.99404,-35.99404 c 0.46368,-1.21229 0.7458,-2.51395 0.7458,-3.88823 0,-6.03067 -4.90498,-10.93565 -10.93565,-10.93565 -6.03066,0 -10.93564,4.90498 -10.93564,10.93565 0,1.38825 0.28491,2.70667 0.75978,3.93291 l -21.69253,21.49699 c -1.97484,-1.02512 -4.18152,-1.66199 -6.553,-1.66199 -2.35194,0 -4.54186,0.6229 -6.50273,1.63406 L 92.778555,190.91964 c 0.363127,-0.70112 0.664793,-1.43016 0.907818,-2.19272 h 53.451967 c 1.662,3.61729 5.29883,6.15077 9.53343,6.15077 4.23459,0 7.87422,-2.53348 9.53621,-6.15356 h 103.16376 c 1.85474,5.76531 7.20943,9.97755 13.58367,9.97755 7.90215,0 14.33225,-6.4301 14.33225,-14.33226 0,-5.57256 -3.22902,-10.36023 -7.88539,-12.72891 z M 36.491429,68.4181 c -2.3659,0 -4.282081,-1.91618 -4.282081,-4.28208 0,-2.3659 1.916181,-4.28208 4.282081,-4.28208 2.365889,0 4.28207,1.91618 4.28207,4.28208 0,2.3659 -1.916181,4.28208 -4.28207,4.28208 z M 232.40004,255.85752 c 2.405,0 4.3547,1.9497 4.3547,4.35471 0,2.405 -1.9497,4.35469 -4.3547,4.35469 -2.405,0 -4.35471,-1.94969 -4.35471,-4.35469 0,-2.40501 1.94971,-4.35471 4.35471,-4.35471 z M 21.709457,118.83658 h 51.541362 c 0.243014,0.75418 0.536311,1.47484 0.893855,2.16758 l -29.421485,29.42706 -29.438247,29.44105 c -0.100567,-0.028 -0.195539,-0.067 -0.29888,-0.0922 -2.307248,-9.69263 -3.444105,-19.56683 -3.444105,-29.98292 0,-8.46361 0.782122,-16.74844 2.268131,-24.75953 3.539076,-0.63965 6.472001,-3.00276 7.899369,-6.20105 z M 7.6872505,114.48467 c 0,-2.32959 1.888254,-4.21505 4.2150365,-4.21505 2.326795,0 4.215048,1.88825 4.215048,4.21505 0,2.32679 -1.888253,4.21504 -4.215048,4.21504 -2.3267825,0 -4.2150365,-1.88825 -4.2150365,-4.21504 z m 5.1703415,77.56344 c -1.960881,0 -3.5530405,-1.59216 -3.5530405,-3.55303 0,-1.96087 1.5893735,-3.55304 3.5530405,-3.55304 1.963667,0 3.553029,1.59217 3.553029,3.55304 0,1.96087 -1.592159,3.55303 -3.553029,3.55303 z m 169.515028,13.72892 c 2.43294,0 4.40498,1.97204 4.40498,4.40498 0,2.43294 -1.97204,4.40498 -4.40498,4.40498 -2.43294,0 -4.40498,-1.97204 -4.40498,-4.40498 0,-2.43294 1.97204,-4.40498 4.40498,-4.40498 z m -38.4214,36.8823 c 3.10612,0 5.62285,2.51673 5.62285,5.62285 0,0.22625 -0.1034,0.41898 -0.12848,0.63965 v 0 c -0.16481,1.38826 -0.77654,2.6145 -1.76536,3.50556 -0.1229,0.11452 -0.28212,0.17598 -0.4134,0.27932 -0.39105,0.2933 -0.77374,0.59776 -1.23462,0.78212 -0.63407,0.26256 -1.32401,0.41061 -2.05585,0.4162 -0.008,0 -0.0139,0.006 -0.0223,0.006 -0.008,0 -0.0168,-0.006 -0.0251,-0.006 -0.73184,-0.002 -1.42457,-0.15364 -2.05584,-0.4162 -0.46368,-0.18436 -0.84357,-0.48882 -1.23742,-0.78212 -0.13128,-0.1034 -0.29329,-0.1648 -0.4162,-0.27932 -1.14244,-1.02792 -1.88824,-2.48322 -1.88824,-4.13963 0,-3.1061 2.51672,-5.62284 5.62284,-5.62284 z m -50.264847,-62.6474 c -1.854731,-5.7681 -7.206636,-9.98314 -13.583665,-9.98314 -7.902154,0 -14.332252,6.4301 -14.332252,14.33225 0,7.90216 6.430098,14.33226 14.332252,14.33226 2.354723,0 4.544642,-0.62569 6.505523,-1.63407 l 44.669939,44.66994 c -1.02513,1.97205 -1.6592,4.17873 -1.6592,6.55301 0,7.90216 6.43009,14.33225 14.33225,14.33225 7.90216,0 14.33226,-6.43009 14.33226,-14.33225 0,-2.35194 -0.62289,-4.54186 -1.63127,-6.49994 l 21.65899,-21.46346 c 1.25977,0.50558 2.62568,0.80167 4.06421,0.80167 1.4553,0 2.83797,-0.29889 4.1089,-0.81564 l 35.84321,35.83762 c -0.51117,1.25977 -0.80726,2.62846 -0.80726,4.0698 0,0.81004 0.1034,1.59215 0.27096,2.35192 -22.159,14.78477 -47.7984,22.64503 -74.83723,22.64503 -57.404454,0 -108.764263,-36.85437 -127.652336,-90.45438 1.575409,-1.6201 2.555844,-3.82399 2.555844,-6.25972 0,-0.86591 -0.162017,-1.68713 -0.391055,-2.48042 L 54.167219,153.30829 80.306616,127.1661 c 1.969251,1.01954 4.167551,1.64802 6.533451,1.64802 2.3659,0 4.553034,-0.62848 6.519487,-1.64243 l 52.840256,52.84024 z m -7.960818,4.35191 c 0,3.10611 -2.516728,5.62285 -5.622847,5.62285 -1.67037,0 -3.128463,-0.76257 -4.15917,-1.91898 -0.122911,-0.13128 -0.189944,-0.30167 -0.29888,-0.44413 -0.279333,-0.38267 -0.569833,-0.7486 -0.748599,-1.19272 -0.262572,-0.63687 -0.416197,-1.3296 -0.416197,-2.06702 0,-3.10612 2.516728,-5.62285 5.622846,-5.62285 0.675972,0 1.307254,0.14525 1.893837,0.38268 0.569822,0.2067 1.064229,0.52235 1.530709,0.89106 v 0 c 1.307255,1.0307 2.201098,2.55583 2.201098,4.34911 z m -4.513917,-69.87917 c 0,-3.10612 2.516727,-5.62285 5.622846,-5.62285 3.106107,0 5.622846,2.51673 5.622846,5.62285 0,3.10611 -2.516739,5.62284 -5.622846,5.62284 -3.106119,0 -5.622846,-2.51673 -5.622846,-5.62284 z m 75.457332,73.85399 c -2.19551,0 -3.97762,-1.77932 -3.97762,-3.97762 0,-2.1983 1.77932,-3.9776 3.97762,-3.9776 2.1983,0 3.97761,1.7793 3.97761,3.9776 0,2.1983 -1.77931,3.97762 -3.97761,3.97762 z m 112.69999,-8.32953 H 166.20519 c -1.662,-3.62007 -5.29883,-6.15356 -9.53622,-6.15356 -1.27931,0 -2.49439,0.26256 -3.62845,0.68435 l -53.521809,-53.5218 c 0.36033,-0.69832 0.656429,-1.42177 0.902229,-2.17875 h 104.01012 c 1.63964,3.4441 5.12843,5.84911 9.18985,5.84911 5.62563,0 10.2038,-4.57817 10.2038,-10.20381 0,-5.62564 -4.57817,-10.20381 -10.2038,-10.20381 -1.14804,0 -2.23462,0.23184 -3.26534,0.5838 l -47.48275,-47.466 c 0.7039,-1.69271 1.10055,-3.54186 1.10055,-5.48598 0,-7.90215 -6.4301,-14.33226 -14.33226,-14.33226 -7.90215,0 -14.33226,6.43011 -14.33226,14.33226 0,2.29886 0.59497,4.44409 1.56144,6.37144 l -43.513522,43.51074 c -1.966464,-1.01676 -4.161979,-1.64524 -6.522284,-1.64524 -2.360317,0 -4.5642,0.63128 -6.533451,1.65082 L 46.544398,68.04101 c 0.47485,-1.21507 0.756969,-2.52511 0.756969,-3.90499 0,-1.71506 -0.438541,-3.3184 -1.153619,-4.75973 25.589123,-28.68685 61.789872,-44.97998 100.797862,-44.97998 74.66404,0 135.40366,60.74239 135.40366,135.40364 0,6.81836 -0.5391,13.65628 -1.52791,20.44671 -5.42174,0.81843 -9.80996,4.65638 -11.4552,9.76247 z M 155.26396,51.91268 c 0,2.79606 -2.0754,5.01112 -4.74856,5.44687 v 0 c -0.0699,0.0113 -0.14246,0.0251 -0.20949,0.0419 -0.22905,0.028 -0.43016,0.13407 -0.6648,0.13407 -3.10612,0 -5.62284,-2.51673 -5.62284,-5.62285 0,-1.04189 0.36033,-1.96366 0.85473,-2.80165 0,-0.002 0.006,-0.006 0.006,-0.0113 0.31284,-0.52793 0.67317,-1.00279 1.13407,-1.39943 0.15642,-0.14246 0.34915,-0.22625 0.51954,-0.34916 0.34916,-0.24022 0.67597,-0.4972 1.07541,-0.65083 0.62849,-0.2542 1.30725,-0.41062 2.0335,-0.41062 0.65641,0 1.25697,0.15364 1.83238,0.36871 0.2095,0.0726 0.40781,0.14246 0.60614,0.24023 0.3296,0.17318 0.63407,0.38826 0.92457,0.6229 0.40503,0.31005 0.74581,0.65642 1.05306,1.06423 v 0 c 0.71229,0.94133 1.20949,2.05584 1.20949,3.32958 z m -5.62285,14.33226 c 2.7793,0 5.35749,-0.82961 7.55579,-2.20668 l 46.10846,46.0917 H 100.41815 c -0.24301,-0.75697 -0.539109,-1.48322 -0.902225,-2.17874 L 142.95403,64.51311 c 2.00557,1.06982 4.25694,1.73183 6.68429,1.73183 z m 60.30664,48.23973 c 0,-2.02792 1.64524,-3.67314 3.67316,-3.67314 2.02791,0 3.67314,1.64522 3.67314,3.67314 0,2.02791 -1.64523,3.67314 -3.67314,3.67314 -2.02792,0 -3.67316,-1.64523 -3.67316,-3.67314 z m 73.00486,75.50202 c -0.67597,0 -1.30445,-0.14526 -1.88824,-0.38268 -0.56983,-0.20391 -1.06144,-0.52234 -1.52792,-0.88826 v 0 c -1.31004,-1.03072 -2.20668,-2.55863 -2.20668,-4.35471 0,-3.1061 2.51673,-5.62284 5.62284,-5.62284 2.00836,0 3.68991,1.11172 4.68432,2.6955 v 0 c 0.24301,0.38547 0.44972,0.77373 0.59496,1.21507 0.20391,0.53631 0.34637,1.10055 0.34637,1.71507 0,3.10611 -2.51674,5.62285 -5.62285,5.62285 z"
     id="path13-5"
     style="fill:url(#radial-gradient-4-5);stroke-width:2.79326" />
</svg>
